<svg preserveAspectRatio="none" width="100%" height="100%" overflow="visible" style="display: block;" viewBox="0 0 150 32" fill="none" xmlns="http://www.w3.org/2000/svg">
<g id="Clip path group">
<mask id="mask0_8006_6609" style="mask-type:luminance" maskUnits="userSpaceOnUse" x="0" y="0" width="150" height="32">
<g id="SVGID_14_">
<path id="Vector" d="M150 0H0V32H150V0Z" fill="var(--fill-0, white)"/>
</g>
</mask>
<g mask="url(#mask0_8006_6609)">
<path id="Vector_2" d="M125.107 23.7895C125.107 25.2632 124.893 26.5263 124.422 27.6632C123.95 28.8 123.265 29.7263 122.322 30.4842C121.851 30.8632 121.294 31.2 120.651 31.4105C120.009 31.6632 119.323 31.7474 118.552 31.7474C117.695 31.7474 116.881 31.5789 116.067 31.2421C115.253 30.9053 114.653 30.4 114.182 29.6842L113.925 31.3684H110.668V10.1474H114.439V17.2211C114.781 16.8 115.338 16.4211 116.067 16.1263C116.795 15.8316 117.609 15.7053 118.552 15.7053C119.366 15.7053 120.051 15.8316 120.694 16.0421C121.337 16.2526 121.894 16.5474 122.365 16.9684C124.165 18.4421 125.107 20.7579 125.107 23.7895ZM121.294 23.7474C121.294 23.0737 121.208 22.4 121.08 21.7684C120.951 21.1368 120.694 20.5474 120.266 20.0421C119.966 19.7053 119.623 19.4105 119.237 19.2C118.809 18.9474 118.338 18.8632 117.738 18.8632C117.009 18.8632 116.41 19.0316 115.938 19.3263C115.467 19.6211 115.124 20.0421 114.867 20.5053C114.61 20.9684 114.439 21.5158 114.353 22.1053C114.267 22.6947 114.225 23.2421 114.225 23.7895C114.225 24.5474 114.31 25.3053 114.482 26.0632C114.653 26.8211 115.039 27.4947 115.553 27.9579C115.81 28.2105 116.11 28.3789 116.495 28.5053C116.838 28.6316 117.266 28.7158 117.738 28.7158C118.338 28.7158 118.809 28.5895 119.237 28.379C119.666 28.1263 120.009 27.8737 120.266 27.5368C120.651 27.0316 120.951 26.4421 121.08 25.7684C121.208 25.0526 121.294 24.4211 121.294 23.7474Z" fill="var(--fill-0, #070C11)" fill-opacity="0.6"/>
</g>
</g>
</svg>
