<svg preserveAspectRatio="none" width="100%" height="100%" overflow="visible" style="display: block;" viewBox="0 0 70.8032 7.03951" fill="none" xmlns="http://www.w3.org/2000/svg">
<path id="Vector" d="M2.25069 6.10303C1.87558 6.10303 1.5348 6.03161 1.22837 5.88875C0.921943 5.7459 0.663065 5.55542 0.451734 5.31733C0.240403 5.07395 0.0898157 4.80677 0 4.51577L0.570603 4.30148C0.707968 4.70359 0.921931 5.01046 1.21251 5.2221C1.50309 5.42844 1.84916 5.53161 2.25069 5.53161C2.50429 5.53161 2.72618 5.49194 2.91638 5.41257C3.11186 5.32792 3.26243 5.21152 3.36809 5.06338C3.47376 4.91523 3.52659 4.74328 3.52659 4.54752C3.52659 4.25652 3.44735 4.03165 3.28885 3.87293C3.13035 3.7142 2.90316 3.59251 2.6073 3.50785L1.54536 3.1904C1.12798 3.06871 0.805705 2.86501 0.578524 2.5793C0.356626 2.29359 0.245679 1.9682 0.245679 1.60313C0.245679 1.29097 0.322281 1.01585 0.475496 0.777756C0.628711 0.534376 0.837399 0.343905 1.10156 0.206342C1.37101 0.0687791 1.6748 0 2.01293 0C2.36691 0 2.68391 0.066138 2.96392 0.19841C3.24922 0.325391 3.48962 0.494693 3.6851 0.706328C3.88058 0.917963 4.02058 1.15341 4.10511 1.41267L3.55037 1.63488C3.42357 1.28568 3.22545 1.02114 2.956 0.841252C2.69184 0.661362 2.38012 0.571414 2.02085 0.571414C1.79367 0.571414 1.59292 0.611101 1.41857 0.690464C1.2495 0.769827 1.11742 0.883575 1.02232 1.03172C0.927218 1.17986 0.879666 1.35447 0.879666 1.55552C0.879666 1.7989 0.956269 2.01848 1.10948 2.21424C1.2627 2.40471 1.49782 2.54756 1.81482 2.6428L2.74995 2.92057C3.21488 3.05813 3.56622 3.25653 3.80397 3.51579C4.04171 3.77504 4.16059 4.10043 4.16059 4.49195C4.16059 4.8094 4.0787 5.08982 3.91492 5.3332C3.75642 5.57129 3.53188 5.75912 3.2413 5.89669C2.95601 6.03425 2.6258 6.10303 2.25069 6.10303ZM6.92177 6.05542C6.54137 6.05542 6.24815 5.9443 6.0421 5.72208C5.83605 5.49987 5.73302 5.18242 5.73302 4.76973V2.34915H4.94846V1.75392H5.14657C5.3262 1.75392 5.46886 1.69573 5.57453 1.57933C5.68019 1.45764 5.73302 1.30684 5.73302 1.12695V0.769824H6.32738V1.75392H7.26253V2.34915H6.32738V4.76973C6.32738 4.91259 6.34852 5.03956 6.39079 5.15067C6.43305 5.25649 6.50438 5.34114 6.60476 5.40463C6.71043 5.46812 6.85043 5.49987 7.02477 5.49987C7.06704 5.49987 7.11725 5.49723 7.17537 5.49193C7.23348 5.48664 7.28367 5.48135 7.32594 5.47606V6.00779C7.26254 6.02367 7.19121 6.03425 7.11196 6.03954C7.03271 6.05012 6.96932 6.05542 6.92177 6.05542ZM9.52112 6.10303C9.25168 6.10303 9.0113 6.05277 8.79997 5.95224C8.58864 5.84642 8.42221 5.70357 8.30069 5.52368C8.17918 5.34379 8.11842 5.13744 8.11842 4.90465C8.11842 4.68243 8.16597 4.48137 8.26107 4.30148C8.35617 4.1163 8.5041 3.96023 8.70486 3.83325C8.90563 3.70627 9.16187 3.61632 9.47358 3.56341L11.1378 3.28564V3.8253L9.61623 4.07927C9.3098 4.13218 9.08791 4.23006 8.95054 4.37291C8.81846 4.51577 8.75243 4.68508 8.75243 4.88084C8.75243 5.07131 8.82639 5.23268 8.97432 5.36495C9.12754 5.49722 9.32302 5.56336 9.56077 5.56336C9.85135 5.56336 10.1049 5.50252 10.3215 5.38083C10.5382 5.25385 10.7072 5.08453 10.8287 4.8729C10.9503 4.66126 11.011 4.42582 11.011 4.16657V3.08723C11.011 2.83327 10.9186 2.62692 10.7337 2.46819C10.5487 2.30947 10.3083 2.2301 10.0125 2.2301C9.7536 2.2301 9.52641 2.29624 9.33093 2.42851C9.13545 2.55549 8.99015 2.72215 8.89506 2.9285L8.35618 2.63485C8.43542 2.45496 8.55958 2.29095 8.72864 2.14281C8.90299 1.99467 9.10111 1.87827 9.32301 1.79361C9.54491 1.70367 9.77473 1.65869 10.0125 1.65869C10.3242 1.65869 10.5989 1.71953 10.8367 1.84122C11.0797 1.96291 11.2673 2.13223 11.3993 2.34915C11.5367 2.56079 11.6054 2.80681 11.6054 3.08723V6.00779H11.011V5.15861L11.0982 5.24591C11.0242 5.40464 10.908 5.55013 10.7495 5.6824C10.5963 5.80938 10.414 5.91256 10.2027 5.99192C9.99663 6.06599 9.76944 6.10303 9.52112 6.10303ZM12.8278 6.00779V1.75392H13.4222V2.45232L13.3429 2.34915C13.4433 2.1481 13.5939 1.98937 13.7946 1.87297C14.0007 1.75657 14.249 1.69837 14.5396 1.69837H14.809V2.2936H14.4366C14.1301 2.2936 13.8845 2.38883 13.6996 2.5793C13.5146 2.76977 13.4222 3.03961 13.4222 3.3888V6.00779H12.8278ZM17.1297 6.05542C16.7493 6.05542 16.4561 5.9443 16.2501 5.72208C16.044 5.49987 15.941 5.18242 15.941 4.76973V2.34915H15.1564V1.75392H15.3545C15.5342 1.75392 15.6768 1.69573 15.7825 1.57933C15.8881 1.45764 15.941 1.30684 15.941 1.12695V0.769824H16.5353V1.75392H17.4705V2.34915H16.5353V4.76973C16.5353 4.91259 16.5565 5.03956 16.5987 5.15067C16.641 5.25649 16.7123 5.34114 16.8127 5.40463C16.9184 5.46812 17.0584 5.49987 17.2327 5.49987C17.275 5.49987 17.3252 5.49723 17.3833 5.49193C17.4414 5.48664 17.4916 5.48135 17.5339 5.47606V6.00779C17.4705 6.02367 17.3992 6.03425 17.3199 6.03954C17.2407 6.05012 17.1773 6.05542 17.1297 6.05542ZM20.3565 6.10303C19.9602 6.10303 19.601 6.0078 19.2787 5.81733C18.9617 5.62156 18.7107 5.35437 18.5258 5.01575C18.3409 4.67714 18.2485 4.29355 18.2485 3.86498C18.2485 3.43642 18.3383 3.05813 18.5179 2.7301C18.6975 2.39677 18.9406 2.13487 19.247 1.9444C19.5587 1.75393 19.9074 1.65869 20.2931 1.65869C20.5995 1.65869 20.8716 1.71689 21.1094 1.83329C21.3524 1.9444 21.5584 2.09784 21.7275 2.2936C21.8965 2.48407 22.026 2.70099 22.1158 2.94437C22.2056 3.18246 22.2505 3.42849 22.2505 3.68245C22.2505 3.73536 22.2479 3.7962 22.2426 3.86498C22.2373 3.92847 22.2294 3.99461 22.2188 4.06339H18.6288V3.50785H21.8781L21.5928 3.74594C21.6403 3.45495 21.606 3.1957 21.4897 2.96819C21.3788 2.73539 21.2177 2.55285 21.0063 2.42058C20.795 2.28302 20.5572 2.21424 20.2931 2.21424C20.0289 2.21424 19.7832 2.28302 19.5561 2.42058C19.3342 2.55814 19.1598 2.75125 19.033 2.99993C18.9062 3.24331 18.856 3.53431 18.8824 3.87293C18.856 4.21154 18.9089 4.50783 19.0409 4.76179C19.1783 5.01046 19.3632 5.20358 19.5957 5.34115C19.8334 5.47871 20.087 5.54749 20.3565 5.54749C20.6682 5.54749 20.9297 5.47342 21.141 5.32527C21.3524 5.17713 21.5241 4.99195 21.6562 4.76973L22.1634 5.03956C22.0788 5.23003 21.9494 5.40728 21.775 5.57129C21.6007 5.73002 21.392 5.85965 21.149 5.96017C20.9112 6.05541 20.6471 6.10303 20.3565 6.10303ZM25.2164 6.10303C24.8202 6.10303 24.4636 6.0078 24.1466 5.81733C23.8296 5.62156 23.5786 5.35701 23.3937 5.02369C23.2141 4.68507 23.1243 4.30413 23.1243 3.88086C23.1243 3.4523 23.2141 3.07136 23.3937 2.73803C23.5786 2.4047 23.8269 2.1428 24.1386 1.95233C24.4556 1.75657 24.8149 1.65869 25.2164 1.65869C25.581 1.65869 25.9059 1.73805 26.1912 1.89678C26.4765 2.0555 26.701 2.26979 26.8648 2.53962L26.7697 2.70628V0H27.3641V6.00779H26.7697V5.05543L26.8648 5.14274C26.7169 5.44961 26.495 5.6877 26.1991 5.85701C25.9086 6.02102 25.581 6.10303 25.2164 6.10303ZM25.2481 5.50781C25.5334 5.50781 25.7897 5.43638 26.0169 5.29352C26.2493 5.15067 26.4316 4.95756 26.5637 4.71418C26.701 4.46551 26.7697 4.18773 26.7697 3.88086C26.7697 3.57399 26.701 3.29886 26.5637 3.05548C26.4316 2.80681 26.2493 2.61105 26.0169 2.46819C25.7897 2.32534 25.5334 2.25392 25.2481 2.25392C24.9681 2.25392 24.7145 2.32534 24.4873 2.46819C24.2602 2.61105 24.0805 2.80417 23.9484 3.04755C23.8216 3.29093 23.7582 3.5687 23.7582 3.88086C23.7582 4.18773 23.8216 4.46551 23.9484 4.71418C24.0805 4.95756 24.2575 5.15067 24.4794 5.29352C24.7066 5.43638 24.9628 5.50781 25.2481 5.50781ZM30.0183 6.00779V0.095234H30.573L32.792 3.31739H32.4829L34.694 0.095234H35.2487V6.00779H34.6147V0.95236L34.8208 1.03172L32.6494 4.18244H32.6177L30.4541 1.03172L30.6523 0.95236V6.00779H30.0183ZM37.784 6.10303C37.5146 6.10303 37.2742 6.05277 37.0629 5.95224C36.8515 5.84642 36.6851 5.70357 36.5636 5.52368C36.4421 5.34379 36.3813 5.13744 36.3813 4.90465C36.3813 4.68243 36.4289 4.48137 36.524 4.30148C36.6191 4.1163 36.767 3.96023 36.9678 3.83325C37.1685 3.70627 37.4248 3.61632 37.7365 3.56341L39.4007 3.28564V3.8253L37.8791 4.07927C37.5727 4.13218 37.3508 4.23006 37.2134 4.37291C37.0813 4.51577 37.0153 4.68508 37.0153 4.88084C37.0153 5.07131 37.0893 5.23268 37.2372 5.36495C37.3904 5.49722 37.5859 5.56336 37.8237 5.56336C38.1142 5.56336 38.3678 5.50252 38.5845 5.38083C38.8011 5.25385 38.9701 5.08453 39.0916 4.8729C39.2131 4.66126 39.2739 4.42582 39.2739 4.16657V3.08723C39.2739 2.83327 39.1815 2.62692 38.9965 2.46819C38.8116 2.30947 38.5712 2.2301 38.2754 2.2301C38.0165 2.2301 37.7893 2.29624 37.5938 2.42851C37.3984 2.55549 37.2531 2.72215 37.158 2.9285L36.6191 2.63485C36.6983 2.45496 36.8225 2.29095 36.9915 2.14281C37.1659 1.99467 37.364 1.87827 37.5859 1.79361C37.8078 1.70367 38.0376 1.65869 38.2754 1.65869C38.5871 1.65869 38.8618 1.71953 39.0996 1.84122C39.3426 1.96291 39.5302 2.13223 39.6622 2.34915C39.7996 2.56079 39.8683 2.80681 39.8683 3.08723V6.00779H39.2739V5.15861L39.3611 5.24591C39.2871 5.40464 39.1709 5.55013 39.0124 5.6824C38.8592 5.80938 38.6769 5.91256 38.4656 5.99192C38.2595 6.06599 38.0323 6.10303 37.784 6.10303ZM41.0914 6.00779V1.75392H41.6857V2.45232L41.6065 2.34915C41.7069 2.1481 41.8574 1.98937 42.0582 1.87297C42.2642 1.75657 42.5126 1.69837 42.8032 1.69837H43.0726V2.2936H42.7001C42.3937 2.2936 42.148 2.38883 41.9631 2.5793C41.7782 2.76977 41.6857 3.03961 41.6857 3.3888V6.00779H41.0914ZM45.9394 6.00779V0.650774H44.83V0.095234H46.5734V6.00779H45.9394ZM48.0798 7.03951V6.76174C48.2383 6.71942 48.3545 6.63741 48.4285 6.51572C48.5025 6.39403 48.5395 6.22472 48.5395 6.00779H48.2383V5.13479H48.8723V5.80145C48.8723 6.14536 48.8063 6.42049 48.6742 6.62683C48.5421 6.83847 48.344 6.97602 48.0798 7.03951ZM51.3885 6.00779V5.61097L53.0369 3.79356C53.3591 3.43907 53.6207 3.14543 53.8214 2.91263C54.0275 2.67984 54.1807 2.4682 54.2811 2.27772C54.3814 2.08725 54.4317 1.88091 54.4317 1.65869C54.4317 1.3042 54.3286 1.03172 54.1226 0.841252C53.9165 0.65078 53.6418 0.55554 53.2984 0.55554C52.9444 0.55554 52.6459 0.656073 52.4029 0.857126C52.1651 1.05818 52.004 1.33859 51.9194 1.69837L51.3409 1.5714C51.4096 1.24865 51.5338 0.970875 51.7134 0.738076C51.893 0.505277 52.1176 0.325391 52.387 0.19841C52.6565 0.066138 52.9576 0 53.2904 0C53.6444 0 53.9535 0.0714303 54.2177 0.214284C54.4818 0.357138 54.6879 0.552901 54.8358 0.801572C54.989 1.05024 55.0656 1.33594 55.0656 1.65869C55.0656 1.88091 55.0181 2.09519 54.923 2.30153C54.8332 2.50787 54.6958 2.7301 54.5109 2.96819C54.326 3.20628 54.0882 3.48405 53.7976 3.8015L52.2998 5.45225H55.2241V6.00779H51.3885ZM58.5889 6.10303C58.124 6.10303 57.7145 5.97604 57.3606 5.72208C57.0119 5.46283 56.7398 5.1057 56.5443 4.65068C56.3488 4.19038 56.2511 3.656 56.2511 3.04755C56.2511 2.4391 56.3488 1.90736 56.5443 1.45235C56.7398 0.992039 57.0119 0.634908 57.3606 0.380946C57.7093 0.126984 58.1161 0 58.581 0C59.0459 0 59.4527 0.126984 59.8014 0.380946C60.1501 0.634908 60.4222 0.992039 60.6177 1.45235C60.8132 1.90736 60.9109 2.4391 60.9109 3.04755C60.9109 3.656 60.8132 4.19038 60.6177 4.65068C60.4275 5.11099 60.158 5.46812 59.8094 5.72208C59.4607 5.97604 59.0538 6.10303 58.5889 6.10303ZM58.5889 5.50781C58.927 5.50781 59.2229 5.40463 59.4765 5.19829C59.7301 4.99195 59.9282 4.70623 60.0709 4.34116C60.2135 3.9708 60.2848 3.5396 60.2848 3.04755C60.2848 2.5555 60.2135 2.12693 60.0709 1.76186C59.9282 1.3915 59.7301 1.10579 59.4765 0.904738C59.2229 0.698394 58.9244 0.59522 58.581 0.59522C58.2429 0.59522 57.947 0.698394 57.6934 0.904738C57.4398 1.10579 57.2417 1.3915 57.099 1.76186C56.9564 2.12693 56.8851 2.5555 56.8851 3.04755C56.8851 3.53431 56.9564 3.96287 57.099 4.33323C57.2417 4.70359 57.4398 4.99195 57.6934 5.19829C57.9523 5.40463 58.2508 5.50781 58.5889 5.50781ZM61.9445 6.00779V5.61097L63.5928 3.79356C63.9151 3.43907 64.1767 3.14543 64.3774 2.91263C64.5835 2.67984 64.7367 2.4682 64.8371 2.27772C64.9374 2.08725 64.9876 1.88091 64.9876 1.65869C64.9876 1.3042 64.8846 1.03172 64.6786 0.841252C64.4725 0.65078 64.1978 0.55554 63.8544 0.55554C63.5004 0.55554 63.2019 0.656073 62.9589 0.857126C62.7211 1.05818 62.56 1.33859 62.4754 1.69837L61.8969 1.5714C61.9656 1.24865 62.0897 0.970875 62.2694 0.738076C62.449 0.505277 62.6736 0.325391 62.943 0.19841C63.2125 0.066138 63.5136 0 63.8464 0C64.2004 0 64.5095 0.0714303 64.7737 0.214284C65.0378 0.357138 65.2439 0.552901 65.3918 0.801572C65.545 1.05024 65.6216 1.33594 65.6216 1.65869C65.6216 1.88091 65.5741 2.09519 65.479 2.30153C65.3892 2.50787 65.2518 2.7301 65.0669 2.96819C64.882 3.20628 64.6442 3.48405 64.3536 3.8015L62.8558 5.45225H65.7801V6.00779H61.9445ZM69.5273 6.00779V4.611H66.5238V4.09514L69.5273 0.095234H70.082V4.09514H70.8032V4.611H70.082V6.00779H69.5273ZM67.0072 4.32529L66.9358 4.09514H69.5273V0.642842L69.7254 0.698396L67.0072 4.32529Z" fill="var(--fill-0, #2D2D2D)" fill-opacity="0.6"/>
</svg>
