<svg width="275" height="200" viewBox="0 0 275 200" fill="none" xmlns="http://www.w3.org/2000/svg">
<path d="M235.921 23.1938H198.633V176.757H235.921V23.1938Z" fill="#2F4EC7" fill-opacity="0.2"/>
<path d="M1.19092 32.2749C1.19092 27.2596 5.28005 23.1938 10.3243 23.1938H38.4793V176.757H10.3243C5.28005 176.757 1.19092 172.692 1.19092 167.676V32.2749Z" fill="url(#paint0_linear_8011_7129)"/>
<path d="M78.6658 23.1938H41.3774V176.757H78.6658V23.1938Z" fill="url(#paint1_linear_8011_7129)"/>
<path d="M118.396 23.1938H81.1074V176.757H118.396V23.1938Z" fill="url(#paint2_linear_8011_7129)"/>
<path d="M158.583 23.1938H121.294V176.757H158.583V23.1938Z" fill="url(#paint3_linear_8011_7129)"/>
<path d="M196.943 23.1938H161.313V176.757H196.943V23.1938Z" fill="url(#paint4_linear_8011_7129)"/>
<path d="M239.236 23.1938H265.732C270.776 23.1938 274.865 27.2596 274.865 32.2749V167.676C274.865 172.692 270.776 176.757 265.732 176.757H239.236V23.1938Z" fill="url(#paint5_linear_8011_7129)"/>
<path d="M18.0288 135.971C19.0861 113.497 24.1411 69.3609 36.1153 54.7681C38.4765 51.8906 42.8391 51.7476 45.5356 54.3173C49.3022 57.9069 53.4451 65.2649 57.6304 85.0026C58.6538 89.8283 63.078 94.5786 67.4223 92.1989C69.1101 91.2745 71.0729 89.718 73.606 87.1539C75.8135 84.92 79.018 83.2904 81.5383 85.1688C85.9602 88.4648 92.3672 97.8882 106.459 123.089C107.456 124.874 108.899 126.459 110.799 127.238C114.031 128.563 117.526 128.629 121.286 123.193C123.76 118.819 130.125 98.9702 134.926 83.2917C136.769 77.2701 143.907 74.6543 149.211 78.0887C153.774 81.0428 159.896 79.5635 162.587 74.8572L168.948 63.7297C173.706 55.4082 186.169 56.7911 188.964 65.9505L197.196 92.925C199.197 99.4797 206.712 102.596 212.804 99.3961L213.16 99.2091C219.129 96.0734 226.541 99.0029 229.607 104.983C235.25 115.994 244.402 128.873 256.007 132.886" stroke="#2F4EC7" stroke-width="2" stroke-linecap="round"/>
<path d="M217.278 102.3C219.51 102.3 221.32 100.5 221.32 98.2806C221.32 96.0609 219.51 94.2615 217.278 94.2615C215.045 94.2615 213.235 96.0609 213.235 98.2806C213.235 100.5 215.045 102.3 217.278 102.3Z" fill="white" stroke="#2F4EC7" stroke-width="2"/>
<g filter="url(#filter0_d_8011_7129)">
<rect x="188.5" y="67" width="57" height="22" rx="11" fill="white" shape-rendering="crispEdges"/>
<rect x="188.75" y="67.25" width="56.5" height="21.5" rx="10.75" stroke="#2F4EC7" stroke-opacity="0.1" stroke-width="0.5" shape-rendering="crispEdges"/>
<path d="M207.75 74.625V77.625C207.75 77.6992 207.728 77.7718 207.687 77.8335C207.646 77.8952 207.587 77.9433 207.519 77.9717C207.45 78.0001 207.375 78.0076 207.302 77.9931C207.229 77.9786 207.162 77.9428 207.11 77.8903L205.875 76.6552L203.141 79.3903C203.106 79.4252 203.064 79.4528 203.019 79.4717C202.973 79.4906 202.924 79.5003 202.875 79.5003C202.826 79.5003 202.777 79.4906 202.732 79.4717C202.686 79.4528 202.645 79.4252 202.61 79.3903L201 77.7802L197.891 80.8903C197.82 80.9607 197.725 81.0002 197.625 81.0002C197.526 81.0002 197.43 80.9607 197.36 80.8903C197.29 80.8199 197.25 80.7245 197.25 80.625C197.25 80.5255 197.29 80.4301 197.36 80.3597L200.735 76.9847C200.77 76.9498 200.811 76.9222 200.857 76.9033C200.902 76.8844 200.951 76.8747 201 76.8747C201.049 76.8747 201.098 76.8844 201.144 76.9033C201.189 76.9222 201.231 76.9498 201.266 76.9847L202.875 78.5948L205.345 76.125L204.11 74.8903C204.057 74.8379 204.022 74.771 204.007 74.6982C203.993 74.6255 204 74.55 204.028 74.4815C204.057 74.4129 204.105 74.3543 204.167 74.3131C204.228 74.2719 204.301 74.2499 204.375 74.25H207.375C207.475 74.25 207.57 74.2895 207.64 74.3598C207.711 74.4302 207.75 74.5255 207.75 74.625Z" fill="#2F4EC7"/>
<path d="M214.98 81.47V76.69H215.6V81.47H214.98ZM212.9 79.39V78.78H217.68V79.39H212.9ZM218.606 82C218.606 81.52 218.686 81.0867 218.846 80.7C219.013 80.3067 219.29 79.9367 219.676 79.59C220.07 79.2367 220.603 78.8867 221.276 78.54C221.636 78.3533 221.93 78.18 222.156 78.02C222.383 77.8533 222.55 77.6767 222.656 77.49C222.763 77.3033 222.816 77.0767 222.816 76.81C222.816 76.5367 222.756 76.2967 222.636 76.09C222.516 75.8767 222.34 75.71 222.106 75.59C221.873 75.47 221.583 75.41 221.236 75.41C220.703 75.41 220.276 75.5533 219.956 75.84C219.636 76.1267 219.436 76.54 219.356 77.08L218.646 77.03C218.726 76.33 218.993 75.7733 219.446 75.36C219.9 74.9467 220.496 74.74 221.236 74.74C221.716 74.74 222.126 74.83 222.466 75.01C222.813 75.1833 223.076 75.4233 223.256 75.73C223.436 76.0367 223.526 76.39 223.526 76.79C223.526 77.1567 223.46 77.4733 223.326 77.74C223.2 78 222.99 78.2433 222.696 78.47C222.41 78.69 222.026 78.9233 221.546 79.17C220.866 79.5233 220.35 79.89 219.996 80.27C219.65 80.65 219.463 81.0067 219.436 81.34H223.526V82H218.606ZM227.784 82V80.39H224.114V79.78L227.744 74.9H228.464V79.73H229.354V80.39H228.464V82H227.784ZM224.954 79.73H227.784V75.96L224.954 79.73ZM231.493 78.23C231.073 78.23 230.726 78.0833 230.453 77.79C230.186 77.49 230.053 77.07 230.053 76.53C230.053 75.9767 230.186 75.5533 230.453 75.26C230.726 74.9667 231.073 74.82 231.493 74.82C231.919 74.82 232.266 74.9667 232.533 75.26C232.799 75.5533 232.933 75.9767 232.933 76.53C232.933 77.07 232.799 77.49 232.533 77.79C232.266 78.0833 231.919 78.23 231.493 78.23ZM231.493 77.73C231.773 77.73 231.986 77.6267 232.133 77.42C232.279 77.2133 232.353 76.9167 232.353 76.53C232.353 76.1433 232.279 75.8467 232.133 75.64C231.986 75.4333 231.773 75.33 231.493 75.33C231.219 75.33 231.006 75.4333 230.853 75.64C230.706 75.8467 230.633 76.1433 230.633 76.53C230.633 76.9167 230.706 77.2133 230.853 77.42C231.006 77.6267 231.219 77.73 231.493 77.73ZM235.293 82.08C234.873 82.08 234.526 81.9333 234.253 81.64C233.986 81.34 233.853 80.9167 233.853 80.37C233.853 79.8233 233.986 79.4033 234.253 79.11C234.526 78.8167 234.873 78.67 235.293 78.67C235.719 78.67 236.066 78.8167 236.333 79.11C236.599 79.4033 236.733 79.8233 236.733 80.37C236.733 80.9167 236.599 81.34 236.333 81.64C236.066 81.9333 235.719 82.08 235.293 82.08ZM235.293 81.57C235.573 81.57 235.786 81.4667 235.933 81.26C236.079 81.0533 236.153 80.7567 236.153 80.37C236.153 79.9833 236.079 79.6867 235.933 79.48C235.786 79.2733 235.573 79.17 235.293 79.17C235.019 79.17 234.806 79.2733 234.653 79.48C234.506 79.6867 234.433 79.9833 234.433 80.37C234.433 80.7567 234.506 81.0533 234.653 81.26C234.806 81.4667 235.019 81.57 235.293 81.57ZM230.593 82L235.563 74.9H236.193L231.233 82H230.593Z" fill="#2F4EC7"/>
</g>
<defs>
<filter id="filter0_d_8011_7129" x="184.5" y="67" width="65" height="30" filterUnits="userSpaceOnUse" color-interpolation-filters="sRGB">
<feFlood flood-opacity="0" result="BackgroundImageFix"/>
<feColorMatrix in="SourceAlpha" type="matrix" values="0 0 0 0 0 0 0 0 0 0 0 0 0 0 0 0 0 0 127 0" result="hardAlpha"/>
<feOffset dy="4"/>
<feGaussianBlur stdDeviation="2"/>
<feComposite in2="hardAlpha" operator="out"/>
<feColorMatrix type="matrix" values="0 0 0 0 0 0 0 0 0 0.462745 0 0 0 0 1 0 0 0 0.08 0"/>
<feBlend mode="normal" in2="BackgroundImageFix" result="effect1_dropShadow_8011_7129"/>
<feBlend mode="normal" in="SourceGraphic" in2="effect1_dropShadow_8011_7129" result="shape"/>
</filter>
<linearGradient id="paint0_linear_8011_7129" x1="19.8351" y1="23.1938" x2="19.8351" y2="176.757" gradientUnits="userSpaceOnUse">
<stop stop-color="#0076FF" stop-opacity="0"/>
<stop offset="1" stop-color="#0076FF" stop-opacity="0.1"/>
</linearGradient>
<linearGradient id="paint1_linear_8011_7129" x1="60.0218" y1="23.1938" x2="60.0218" y2="176.757" gradientUnits="userSpaceOnUse">
<stop stop-color="#0076FF" stop-opacity="0"/>
<stop offset="1" stop-color="#0076FF" stop-opacity="0.1"/>
</linearGradient>
<linearGradient id="paint2_linear_8011_7129" x1="99.7518" y1="23.1938" x2="99.7518" y2="176.757" gradientUnits="userSpaceOnUse">
<stop stop-color="#0076FF" stop-opacity="0"/>
<stop offset="1" stop-color="#0076FF" stop-opacity="0.1"/>
</linearGradient>
<linearGradient id="paint3_linear_8011_7129" x1="139.939" y1="23.1938" x2="139.939" y2="176.757" gradientUnits="userSpaceOnUse">
<stop stop-color="#0076FF" stop-opacity="0"/>
<stop offset="1" stop-color="#0076FF" stop-opacity="0.1"/>
</linearGradient>
<linearGradient id="paint4_linear_8011_7129" x1="179.128" y1="23.1938" x2="179.128" y2="176.757" gradientUnits="userSpaceOnUse">
<stop stop-color="#0076FF" stop-opacity="0"/>
<stop offset="1" stop-color="#0076FF" stop-opacity="0.1"/>
</linearGradient>
<linearGradient id="paint5_linear_8011_7129" x1="257.05" y1="23.1938" x2="257.05" y2="176.757" gradientUnits="userSpaceOnUse">
<stop stop-color="#0076FF" stop-opacity="0"/>
<stop offset="1" stop-color="#0076FF" stop-opacity="0.1"/>
</linearGradient>
</defs>
</svg>
